<svg width="74" height="63" viewBox="0 0 74 63" fill="none" xmlns="http://www.w3.org/2000/svg">
<ellipse cx="37" cy="31.5" rx="37" ry="31.5" fill="black"/>
<g clip-path="url(#clip0)">
<path d="M54.4079 28.1924C54.5675 27.2297 54.667 26.1741 54.6921 24.9905C54.6825 19.9153 52.1345 18.1194 51.6442 17.2775C52.3663 13.432 51.5246 11.6829 51.1332 11.0841C49.6894 10.5954 46.11 12.3452 44.1543 13.577C40.9657 12.687 34.2272 12.7739 31.7002 13.8073C27.0377 10.624 24.5717 11.1094 24.5717 11.1094C24.5717 11.1094 22.9775 13.8353 24.1503 17.823C22.6162 19.687 21.4728 21.0048 21.4728 24.5004C21.4728 25.3376 21.5273 26.1287 21.6198 26.8899C22.941 33.5133 28.4452 36.3707 33.852 36.8634C33.0383 37.4529 32.0616 38.5684 31.9265 39.861C30.9041 40.4912 28.8477 40.6995 27.2486 40.2202C25.008 39.5451 24.1503 35.3145 20.7949 35.918C20.0689 36.0475 20.2132 36.5041 20.8419 36.8934C21.8641 37.5256 22.8269 38.3115 23.569 39.9931C24.139 41.2843 25.3377 43.5895 29.1278 43.5895C30.6324 43.5895 31.6863 43.42 31.6863 43.42C31.6863 43.42 31.715 46.71 31.715 47.9931C31.715 49.4698 29.6249 49.8844 29.6249 50.5929C29.6249 50.8746 30.3166 50.9014 30.8726 50.9014C31.9713 50.9014 34.2572 50.0288 34.2572 48.4939C34.2572 47.2743 34.2776 43.1758 34.2776 42.458C34.2776 40.8898 35.1591 40.3905 35.1591 40.3905C35.1591 40.3905 35.267 48.7622 34.947 49.8845C34.5717 51.2044 33.8919 51.0169 33.8919 51.6043C33.8919 52.4809 36.6401 51.8187 37.5516 49.8999C38.2568 48.4012 37.941 40.1915 37.941 40.1915L38.6762 40.1762C38.6762 40.1762 38.6846 43.9362 38.6593 45.6539C38.6328 47.4331 38.4402 49.6823 39.5485 50.7438C40.276 51.442 42.5046 52.6671 42.5046 51.5475C42.5046 50.8987 40.944 50.3625 40.944 48.6047V40.507C41.8921 40.507 42.088 43.1688 42.088 43.1688L42.4298 48.1139C42.4298 48.1139 42.2029 49.9185 44.4743 50.6715C45.2761 50.9393 46.9915 51.0121 47.0719 50.5626C47.1525 50.1121 45.0064 49.4458 44.986 48.0491C44.975 47.1984 45.026 46.7006 45.026 43.0006C45.026 39.3026 44.505 37.9346 42.6895 36.8445C47.9543 36.3293 53.4228 34.0874 54.4079 28.1924Z" fill="white"/>
</g>
<defs>
<clipPath id="clip0">
<rect width="43" height="41" fill="white" transform="translate(16 11)"/>
</clipPath>
</defs>
</svg>
