<svg width="74" height="63" viewBox="0 0 74 63" fill="none" xmlns="http://www.w3.org/2000/svg">
<ellipse cx="37" cy="31.5" rx="37" ry="31.5" fill="black"/>
<path d="M16.6987 23.4019H26.7661V46H16.6987V23.4019Z" fill="white"/>
<path d="M21.7324 13C18.5716 13 16 14.8533 16 17.1314C16 19.4095 18.5716 21.2628 21.7324 21.2628C24.8934 21.2628 27.465 19.4095 27.465 17.1314C27.4649 14.8533 24.8933 13 21.7324 13V13Z" fill="white"/>
<path d="M59.9969 30.2246C59.864 26.0129 55.0802 22.7138 49.1064 22.7138C45.799 22.7138 42.7277 23.7701 40.6676 25.5785V23.4018H31.0959V46H41.1633V32.9375C41.1633 31.1971 43.1279 29.7812 45.5427 29.7812C47.9574 29.7812 49.922 31.1969 49.922 32.9376L49.9328 46H60L59.9969 30.2246Z" fill="white"/>
</svg>
