<svg width="74" height="63" viewBox="0 0 74 63" fill="none" xmlns="http://www.w3.org/2000/svg">
<ellipse cx="37" cy="31.5" rx="37" ry="31.5" fill="black"/>
<g clip-path="url(#clip0)">
<path d="M58.7614 43.7938C58.707 43.6581 58.6562 43.5455 58.609 43.4553C57.8282 41.8304 56.3362 39.836 54.1339 37.4715L54.0874 37.4173L54.0641 37.3908L54.0405 37.3635H54.0169C53.0174 36.2625 52.3844 35.5222 52.1193 35.1431C51.6343 34.4211 51.5257 33.6903 51.7908 32.9498C51.978 32.3903 52.6815 31.2087 53.8995 29.4034C54.5401 28.4467 55.0475 27.6799 55.4222 27.1022C58.1246 22.9506 59.2963 20.2977 58.9368 19.1424L58.7972 18.8724C58.7034 18.7099 58.4613 18.5612 58.0713 18.4256C57.6804 18.2903 57.1807 18.2679 56.5713 18.3581L49.8238 18.412C49.7145 18.3672 49.5584 18.3714 49.355 18.4256C49.1519 18.4799 49.0503 18.5071 49.0503 18.5071L48.9329 18.5749L48.8397 18.6563C48.7616 18.7102 48.6756 18.8049 48.5818 18.9403C48.4885 19.0753 48.4105 19.2337 48.3481 19.4141C47.6135 21.5981 46.7783 23.6287 45.8408 25.5057C45.2629 26.625 44.7321 27.595 44.2473 28.4163C43.7633 29.2373 43.3571 29.8422 43.0294 30.23C42.7011 30.6181 42.4049 30.929 42.1388 31.1639C41.8732 31.3989 41.6704 31.4982 41.53 31.4619C41.3892 31.4256 41.2567 31.3895 41.1312 31.3535C40.9127 31.191 40.7369 30.9699 40.6044 30.6902C40.4713 30.4104 40.3817 30.0583 40.3348 29.6342C40.2882 29.2097 40.2606 28.8446 40.2528 28.5377C40.2454 28.2311 40.2488 27.7974 40.2647 27.2379C40.2809 26.6782 40.2882 26.2994 40.2882 26.1009C40.2882 25.4149 40.2998 24.6704 40.323 23.8672C40.3466 23.064 40.3658 22.4276 40.3818 21.9587C40.3977 21.4894 40.4051 20.9929 40.4051 20.4695C40.4051 19.946 40.3775 19.5355 40.323 19.2375C40.2692 18.94 40.1865 18.6511 40.0776 18.3711C39.9681 18.0913 39.8077 17.8749 39.5973 17.7213C39.3865 17.5679 39.1244 17.4461 38.8125 17.3557C37.9845 17.1392 36.9303 17.0221 35.6492 17.0039C32.7441 16.9678 30.8774 17.1846 30.0495 17.6539C29.7215 17.8522 29.4247 18.1231 29.1593 18.4658C28.8781 18.8631 28.8388 19.0798 29.0419 19.1155C29.9792 19.2777 30.6427 19.6659 31.0333 20.2795L31.174 20.6047C31.2835 20.8393 31.3928 21.2546 31.5022 21.8502C31.6114 22.4457 31.6819 23.1045 31.7129 23.8261C31.7909 25.1439 31.7909 26.272 31.7129 27.2104C31.6347 28.1492 31.5609 28.8801 31.4904 29.4035C31.4199 29.927 31.3145 30.3512 31.174 30.676C31.0333 31.0008 30.9396 31.1994 30.8927 31.2715C30.8459 31.3435 30.8068 31.389 30.7758 31.4068C30.5727 31.4967 30.3616 31.5425 30.1431 31.5425C29.9242 31.5425 29.6588 31.416 29.3465 31.1632C29.0342 30.9104 28.7102 30.5631 28.3743 30.1208C28.0384 29.6784 27.6596 29.0603 27.2377 28.2662C26.8161 27.4721 26.3787 26.5336 25.9258 25.4506L25.551 24.6652C25.3167 24.16 24.9966 23.4243 24.5905 22.4589C24.1841 21.493 23.8249 20.5588 23.5127 19.6563C23.3879 19.2773 23.2004 18.9887 22.9505 18.7901L22.8332 18.7087C22.7552 18.6366 22.6301 18.5601 22.4584 18.4785C22.2865 18.3971 22.1071 18.3387 21.9195 18.3027L15.4998 18.3566C14.8438 18.3566 14.3987 18.5283 14.1643 18.8713L14.0705 19.0336C14.0236 19.1239 14 19.2683 14 19.4669C14 19.6655 14.0469 19.9092 14.1407 20.1978C15.0778 22.743 16.097 25.1976 17.1981 27.5621C18.2992 29.9265 19.2561 31.8312 20.0681 33.2743C20.8803 34.7184 21.7081 36.0814 22.5516 37.3625C23.3952 38.6441 23.9535 39.4654 24.2267 39.8262C24.5002 40.1877 24.7151 40.458 24.8712 40.6385L25.4571 41.2881C25.832 41.7214 26.3824 42.2403 27.1088 42.8448C27.8353 43.4497 28.6396 44.0453 29.5221 44.6323C30.4048 45.2185 31.4316 45.6968 32.6032 46.0667C33.7747 46.437 34.9149 46.5856 36.024 46.5139H38.7184C39.2649 46.4594 39.6789 46.2608 39.9603 45.9181L40.0535 45.7824C40.1162 45.6747 40.1749 45.5073 40.229 45.2821C40.2839 45.0565 40.3111 44.808 40.3111 44.5376C40.2951 43.7616 40.3462 43.0623 40.4631 42.4396C40.5799 41.8172 40.713 41.3479 40.8618 41.0318C41.0106 40.716 41.1785 40.4496 41.3654 40.2335C41.5526 40.017 41.6861 39.8859 41.7644 39.8408C41.8422 39.7953 41.9043 39.7645 41.9511 39.746C42.326 39.6017 42.7672 39.7415 43.2753 40.166C43.783 40.5902 44.2592 41.1139 44.7047 41.7364C45.1499 42.3594 45.6848 43.0584 46.3094 43.8344C46.9345 44.6106 47.481 45.1877 47.9495 45.5673L48.4179 45.8921C48.7307 46.1089 49.1368 46.3075 49.6368 46.488C50.1358 46.6683 50.573 46.7135 50.9485 46.6233L56.9462 46.5152C57.5394 46.5152 58.0011 46.4017 58.3285 46.1764C58.6566 45.9508 58.8515 45.7023 58.9143 45.4319C58.977 45.1613 58.9804 44.8542 58.9262 44.511C58.8707 44.1685 58.8159 43.9291 58.7614 43.7938Z" fill="white"/>
</g>
<defs>
<clipPath id="clip0">
<rect width="45" height="52" fill="white" transform="translate(15 11)"/>
</clipPath>
</defs>
</svg>
